<?xml version="1.0" encoding="UTF-8"?>
<svg id="Ebene_1" xmlns="http://www.w3.org/2000/svg" version="1.1" viewBox="0 0 16 16">
  <!-- Generator: Adobe Illustrator 29.6.1, SVG Export Plug-In . SVG Version: 2.1.1 Build 9)  -->
  <defs>
    <style>
      .st0 {
        stroke-width: .5px;
      }

      .st0, .st1 {
        stroke: #000;
      }

      .st1 {
        fill: none;
        stroke-width: 1.9px;
      }
    </style>
  </defs>
  <path class="st1" d="M8,.9C4.1.9.9,4.1.9,8s3.2,7.1,7.1,7.1,7.1-3.2,7.1-7.1S11.9.9,8,.9Z"/>
  <path class="st0" d="M8.9,10c0,0-.2.1-.3.1s0,0,0,0c0,0,0,0,0,0,0,0,0,0,0,0,0,0,0,0,0,0,0,0,0,0,0,0,0,0,0,0,0,0,0,0,0,0,0,0,0,0,0,0,0,0,0,0,0,0,0,0,0,0,0,0,0,0l-.4-.7-.4.7c0,.1-.2.2-.3.2s-.3,0-.3-.2l-1.8-2.6c0,0,0-.2,0-.3,0-.2.2-.4.4-.4s.2,0,.3.2l1.5,2.3.4-.7c0-.1.2-.2.3-.2s.2,0,.3.2l.4.7,2.4-3.4c0-.1.2-.2.3-.2.2,0,.4.2.4.4s0,.2,0,.3l-2.7,3.9Z"/>
</svg>